<?xml version="1.0" encoding="UTF-8"?>
<svg xmlns="http://www.w3.org/2000/svg" width="1000" height="1000" viewBox="0 0 1000 1000" role="img" aria-labelledby="title desc">
  <title id="title">Strong antelope head logo</title>
  <desc id="desc">Vectorized front-facing antelope head with bold horns and strong angular markings.</desc>
  <g shape-rendering="geometricPrecision">
    <path d="M 446.0 866.0 L 456.0 885.0 L 465.0 894.0 L 479.0 902.0 L 496.0 906.0 L 512.0 905.0 L 530.0 898.0 L 544.0 886.0 L 554.0 866.0 L 521.0 882.0 L 494.0 885.0 L 466.0 877.0 Z M 427.0 797.0 L 425.0 837.0 L 438.0 854.0 L 455.0 862.0 L 488.0 850.0 L 477.0 828.0 L 460.0 820.0 L 446.0 804.0 L 444.0 782.0 L 455.0 771.0 L 499.0 798.0 L 543.0 776.0 L 543.0 770.0 L 556.0 780.0 L 552.0 809.0 L 524.0 828.0 L 514.0 841.0 L 514.0 852.0 L 549.0 861.0 L 570.0 847.0 L 577.0 832.0 L 569.0 786.0 L 539.0 748.0 L 501.0 775.0 L 461.0 748.0 L 443.0 766.0 Z M 417.0 604.0 L 426.0 632.0 L 443.0 664.0 L 449.0 686.0 L 449.0 707.0 L 440.0 739.0 L 455.0 694.0 L 455.0 657.0 L 440.0 623.0 L 438.0 630.0 L 435.0 630.0 L 436.0 615.0 Z M 585.0 603.0 L 565.0 615.0 L 566.0 631.0 L 560.0 623.0 L 545.0 662.0 L 546.0 695.0 L 562.0 742.0 L 552.0 708.0 L 552.0 685.0 L 559.0 661.0 Z M 661.0 567.0 L 652.0 590.0 L 642.0 601.0 L 619.0 606.0 L 639.0 606.0 L 639.0 609.0 L 607.0 613.0 L 592.0 624.0 L 595.0 624.0 L 596.0 638.0 L 579.0 699.0 L 603.0 663.0 L 653.0 621.0 L 658.0 607.0 Z M 340.0 567.0 L 343.0 609.0 L 349.0 623.0 L 394.0 659.0 L 422.0 700.0 L 405.0 638.0 L 407.0 622.0 L 394.0 613.0 L 362.0 609.0 L 362.0 606.0 L 382.0 606.0 L 360.0 602.0 L 349.0 590.0 Z M 626.0 495.0 L 599.0 548.0 L 570.0 581.0 L 574.0 593.0 L 597.0 587.0 L 624.0 553.0 L 639.0 540.0 L 655.0 536.0 L 667.0 538.0 L 667.0 542.0 L 667.0 537.0 L 659.0 529.0 L 636.0 516.0 L 638.0 514.0 Z M 375.0 495.0 L 363.0 516.0 L 348.0 524.0 L 333.0 539.0 L 351.0 536.0 L 362.0 540.0 L 375.0 551.0 L 401.0 585.0 L 419.0 593.0 L 427.0 593.0 L 430.0 581.0 L 400.0 545.0 Z M 217.0 471.0 L 232.0 482.0 L 251.0 492.0 L 287.0 507.0 L 293.0 504.0 L 289.0 498.0 L 277.0 491.0 L 271.0 483.0 L 239.0 481.0 L 229.0 478.0 Z M 785.0 470.0 L 774.0 477.0 L 762.0 481.0 L 735.0 482.0 L 722.0 485.0 L 724.0 486.0 L 724.0 490.0 L 709.0 500.0 L 704.0 506.0 L 705.0 508.0 L 709.0 506.0 L 714.0 507.0 L 769.0 482.0 Z M 424.0 418.0 L 409.0 420.0 L 390.0 427.0 L 401.0 424.0 L 423.0 422.0 Z M 154.0 337.0 L 156.0 366.0 L 168.0 406.0 L 155.0 380.0 L 171.0 417.0 L 195.0 444.0 L 213.0 448.0 L 193.0 423.0 L 195.0 419.0 L 208.0 418.0 L 173.0 381.0 L 188.0 378.0 Z M 847.0 336.0 L 813.0 375.0 L 828.0 381.0 L 795.0 419.0 L 809.0 421.0 L 790.0 448.0 L 797.0 449.0 L 807.0 443.0 L 828.0 420.0 L 846.0 379.0 L 835.0 401.0 L 847.0 355.0 Z M 194.0 320.0 L 238.0 355.0 L 267.0 391.0 L 252.0 391.0 L 273.0 413.0 L 257.0 414.0 L 282.0 435.0 L 264.0 437.0 L 287.0 451.0 L 272.0 455.0 L 294.0 464.0 L 283.0 467.0 L 316.0 477.0 L 298.0 454.0 L 282.0 398.0 L 264.0 366.0 L 228.0 337.0 Z M 809.0 319.0 L 771.0 338.0 L 734.0 369.0 L 703.0 454.0 L 685.0 477.0 L 716.0 468.0 L 708.0 464.0 L 729.0 455.0 L 714.0 451.0 L 736.0 437.0 L 719.0 435.0 L 743.0 414.0 L 726.0 414.0 L 748.0 391.0 L 734.0 391.0 L 766.0 352.0 Z" fill="#f5e8d3" fill-rule="evenodd"/>
    <path d="M 457.0 870.0 L 466.0 876.0 L 494.0 884.0 L 506.0 884.0 L 521.0 881.0 L 541.0 872.0 L 494.0 877.0 Z M 496.0 849.0 L 489.0 842.0 L 489.0 850.0 L 486.0 853.0 L 478.0 857.0 L 458.0 863.0 L 480.0 863.0 L 497.0 858.0 Z M 505.0 848.0 L 504.0 858.0 L 508.0 860.0 L 521.0 863.0 L 543.0 863.0 L 537.0 862.0 L 514.0 853.0 L 512.0 851.0 L 514.0 845.0 L 513.0 841.0 Z M 359.0 677.0 L 359.0 699.0 L 366.0 721.0 L 400.0 755.0 L 421.0 788.0 L 418.0 768.0 L 403.0 732.0 Z M 642.0 673.0 L 633.0 690.0 L 609.0 715.0 L 596.0 735.0 L 583.0 767.0 L 579.0 788.0 L 599.0 757.0 L 634.0 722.0 L 641.0 702.0 Z M 596.0 588.0 L 581.0 594.0 L 574.0 594.0 L 572.0 591.0 L 571.0 584.0 L 569.0 582.0 L 564.0 596.0 L 564.0 614.0 L 573.0 609.0 L 573.0 607.0 L 580.0 600.0 Z M 406.0 588.0 L 408.0 591.0 L 420.0 599.0 L 428.0 607.0 L 428.0 609.0 L 436.0 614.0 L 436.0 592.0 L 430.0 580.0 L 430.0 588.0 L 427.0 594.0 L 419.0 594.0 Z M 333.0 540.0 L 336.0 551.0 L 344.0 547.0 L 351.0 547.0 L 346.0 544.0 L 335.0 541.0 L 334.0 539.0 Z M 668.0 538.0 L 666.0 541.0 L 657.0 543.0 L 649.0 547.0 L 657.0 547.0 L 665.0 551.0 L 667.0 544.0 L 666.0 541.0 Z M 724.0 486.0 L 721.0 485.0 L 709.0 491.0 L 704.0 495.0 L 707.0 495.0 L 705.0 498.0 L 692.0 505.0 L 680.0 519.0 L 690.0 517.0 L 712.0 508.0 L 709.0 507.0 L 705.0 509.0 L 703.0 505.0 L 709.0 499.0 L 723.0 490.0 Z M 270.0 484.0 L 294.0 502.0 L 294.0 504.0 L 289.0 508.0 L 311.0 517.0 L 321.0 519.0 L 312.0 509.0 L 313.0 511.0 L 309.0 513.0 L 307.0 510.0 L 310.0 507.0 L 299.0 499.0 L 297.0 501.0 L 294.0 497.0 L 295.0 494.0 L 297.0 495.0 L 283.0 486.0 L 273.0 483.0 Z M 636.0 473.0 L 647.0 485.0 L 650.0 493.0 L 662.0 514.0 L 652.0 491.0 L 641.0 477.0 Z M 365.0 473.0 L 349.0 491.0 L 340.0 511.0 L 351.0 491.0 Z M 363.0 445.0 L 359.0 449.0 L 360.0 456.0 L 358.0 457.0 L 358.0 464.0 L 355.0 475.0 L 364.0 449.0 L 368.0 446.0 Z M 616.0 435.0 L 615.0 436.0 L 626.0 441.0 L 637.0 449.0 L 645.0 473.0 L 642.0 459.0 L 642.0 449.0 L 633.0 442.0 Z M 549.0 419.0 L 559.0 418.0 L 577.0 423.0 L 586.0 423.0 L 587.0 421.0 L 586.0 419.0 L 568.0 416.0 L 559.0 416.0 L 558.0 418.0 L 553.0 417.0 Z M 423.0 417.0 L 424.0 422.0 L 440.0 418.0 L 448.0 418.0 L 441.0 418.0 L 440.0 416.0 Z M 277.0 385.0 L 287.0 419.0 L 295.0 433.0 L 293.0 440.0 L 301.0 449.0 L 299.0 454.0 L 306.0 461.0 L 306.0 466.0 L 315.0 475.0 L 303.0 476.0 L 323.0 493.0 L 331.0 505.0 L 335.0 488.0 L 308.0 452.0 Z M 731.0 375.0 L 715.0 401.0 L 704.0 428.0 L 706.0 430.0 L 703.0 430.0 L 689.0 458.0 L 666.0 488.0 L 670.0 505.0 L 677.0 494.0 L 698.0 476.0 L 684.0 477.0 L 703.0 453.0 L 701.0 448.0 L 709.0 438.0 L 706.0 434.0 L 714.0 419.0 L 719.0 396.0 Z M 851.0 311.0 L 774.0 379.0 L 791.0 378.0 L 766.0 403.0 L 789.0 404.0 L 765.0 422.0 L 776.0 425.0 L 759.0 437.0 L 779.0 439.0 L 770.0 448.0 L 772.0 453.0 L 768.0 449.0 L 758.0 457.0 L 796.0 450.0 L 788.0 445.0 L 808.0 420.0 L 794.0 417.0 L 827.0 381.0 L 814.0 379.0 L 814.0 372.0 L 846.0 335.0 L 849.0 343.0 Z M 149.0 310.0 L 152.0 343.0 L 156.0 337.0 L 187.0 372.0 L 188.0 379.0 L 174.0 381.0 L 209.0 418.0 L 193.0 421.0 L 214.0 445.0 L 201.0 448.0 L 228.0 457.0 L 232.0 449.0 L 220.0 437.0 L 242.0 437.0 L 224.0 425.0 L 231.0 418.0 L 212.0 403.0 L 235.0 403.0 L 210.0 378.0 L 227.0 379.0 Z" fill="#e3caab" fill-rule="evenodd"/>
    <path d="M 229.0 445.0 L 232.0 448.0 L 232.0 450.0 L 229.0 452.0 L 229.0 457.0 L 243.0 457.0 Z" fill="#d3b797" fill-rule="evenodd"/>
    <path d="M 578.0 740.0 L 574.0 742.0 L 570.0 741.0 L 569.0 744.0 L 569.0 757.0 L 572.0 760.0 L 572.0 766.0 L 576.0 776.0 L 577.0 764.0 L 575.0 761.0 L 578.0 757.0 L 580.0 742.0 Z M 422.0 737.0 L 421.0 744.0 L 424.0 747.0 L 431.0 745.0 L 430.0 737.0 Z M 413.0 708.0 L 417.0 722.0 L 420.0 727.0 L 421.0 722.0 L 418.0 717.0 L 419.0 711.0 L 416.0 708.0 Z M 390.0 658.0 L 390.0 664.0 L 393.0 667.0 L 396.0 667.0 L 400.0 672.0 L 400.0 680.0 L 406.0 681.0 L 411.0 686.0 L 412.0 684.0 L 398.0 665.0 Z M 611.0 656.0 L 589.0 683.0 L 581.0 698.0 L 578.0 700.0 L 577.0 706.0 L 594.0 694.0 L 594.0 685.0 L 604.0 677.0 L 604.0 674.0 L 602.0 672.0 L 603.0 667.0 L 612.0 664.0 Z M 494.0 592.0 L 480.0 595.0 L 482.0 608.0 L 479.0 601.0 L 469.0 616.0 L 455.0 617.0 L 462.0 647.0 L 466.0 644.0 L 470.0 649.0 L 459.0 660.0 L 455.0 700.0 L 441.0 739.0 L 455.0 729.0 L 487.0 671.0 L 489.0 659.0 L 481.0 648.0 L 489.0 644.0 L 484.0 628.0 L 489.0 622.0 L 494.0 625.0 Z M 531.0 581.0 L 506.0 595.0 L 511.0 661.0 L 525.0 697.0 L 566.0 754.0 L 548.0 708.0 L 542.0 665.0 L 537.0 663.0 L 541.0 654.0 L 538.0 631.0 L 546.0 619.0 L 538.0 611.0 L 531.0 613.0 L 540.0 598.0 L 529.0 594.0 L 536.0 586.0 Z M 522.0 592.0 L 529.0 595.0 L 529.0 600.0 L 525.0 606.0 L 525.0 618.0 L 521.0 623.0 L 519.0 622.0 L 524.0 631.0 L 523.0 633.0 L 525.0 636.0 L 525.0 642.0 L 523.0 643.0 L 522.0 647.0 L 519.0 648.0 L 514.0 644.0 L 510.0 632.0 L 511.0 628.0 L 515.0 623.0 L 513.0 620.0 L 515.0 612.0 L 512.0 605.0 L 516.0 601.0 L 519.0 594.0 Z M 359.0 579.0 L 361.0 587.0 L 366.0 592.0 L 370.0 594.0 L 381.0 593.0 L 368.0 589.0 L 362.0 584.0 Z M 538.0 515.0 L 535.0 520.0 L 539.0 523.0 L 539.0 530.0 L 530.0 530.0 L 535.0 540.0 L 534.0 546.0 L 530.0 546.0 L 530.0 541.0 L 526.0 537.0 L 523.0 545.0 L 527.0 548.0 L 531.0 560.0 L 541.0 561.0 L 539.0 555.0 L 534.0 552.0 L 541.0 544.0 L 538.0 539.0 L 540.0 535.0 L 543.0 535.0 L 554.0 548.0 L 560.0 548.0 L 562.0 542.0 L 559.0 537.0 L 551.0 533.0 L 550.0 527.0 Z M 450.0 503.0 L 449.0 505.0 L 451.0 510.0 L 445.0 513.0 L 444.0 520.0 L 447.0 521.0 L 450.0 526.0 L 456.0 531.0 L 461.0 530.0 L 461.0 528.0 L 457.0 522.0 L 457.0 517.0 L 461.0 511.0 L 457.0 506.0 Z M 376.0 491.0 L 374.0 495.0 L 377.0 496.0 L 384.0 513.0 L 386.0 506.0 L 383.0 503.0 L 385.0 494.0 L 381.0 491.0 Z M 634.0 488.0 L 626.0 486.0 L 619.0 492.0 L 618.0 496.0 L 622.0 502.0 L 624.0 496.0 L 627.0 496.0 L 630.0 491.0 L 634.0 490.0 Z M 633.0 470.0 L 633.0 475.0 L 636.0 479.0 L 636.0 485.0 L 645.0 486.0 L 647.0 489.0 L 647.0 495.0 L 643.0 500.0 L 652.0 499.0 L 655.0 502.0 L 645.0 485.0 L 638.0 477.0 L 639.0 475.0 Z M 368.0 470.0 L 360.0 477.0 L 361.0 479.0 L 354.0 488.0 L 343.0 508.0 L 340.0 509.0 L 338.0 518.0 L 345.0 512.0 L 344.0 505.0 L 346.0 502.0 L 356.0 499.0 L 353.0 490.0 L 367.0 476.0 Z M 377.0 441.0 L 366.0 448.0 L 361.0 463.0 L 362.0 461.0 L 368.0 460.0 L 366.0 451.0 L 375.0 449.0 Z M 176.0 427.0 L 174.0 431.0 L 176.0 436.0 L 183.0 437.0 L 185.0 440.0 L 183.0 446.0 L 186.0 449.0 L 191.0 448.0 L 197.0 454.0 L 197.0 459.0 L 202.0 459.0 L 214.0 470.0 L 194.0 451.0 Z M 154.0 374.0 L 150.0 379.0 L 150.0 382.0 L 154.0 388.0 L 154.0 393.0 L 157.0 400.0 L 163.0 402.0 L 153.0 377.0 Z M 860.0 321.0 L 856.0 338.0 L 857.0 342.0 L 855.0 343.0 L 856.0 346.0 L 854.0 347.0 L 855.0 351.0 L 853.0 352.0 L 854.0 355.0 L 852.0 356.0 L 853.0 359.0 L 851.0 360.0 L 852.0 362.0 L 856.0 359.0 L 857.0 351.0 L 860.0 349.0 L 861.0 346.0 L 859.0 342.0 L 859.0 334.0 L 862.0 330.0 Z M 199.0 317.0 L 198.0 320.0 L 229.0 337.0 L 230.0 336.0 L 213.0 325.0 L 212.0 327.0 L 209.0 326.0 L 209.0 323.0 Z M 141.0 316.0 L 136.0 321.0 L 137.0 331.0 L 142.0 335.0 L 143.0 338.0 L 141.0 350.0 L 145.0 354.0 L 144.0 363.0 L 145.0 365.0 L 150.0 367.0 L 151.0 364.0 L 149.0 363.0 L 150.0 360.0 L 147.0 356.0 L 148.0 353.0 L 146.0 352.0 L 143.0 343.0 L 144.0 334.0 Z M 158.0 301.0 L 160.0 303.0 L 168.0 306.0 L 190.0 321.0 L 180.0 313.0 L 182.0 312.0 L 193.0 318.0 L 189.0 312.0 L 187.0 313.0 L 177.0 308.0 L 175.0 309.0 L 167.0 304.0 L 167.0 298.0 L 161.0 295.0 Z M 847.0 299.0 L 843.0 294.0 L 841.0 294.0 L 831.0 300.0 L 826.0 306.0 L 819.0 308.0 L 814.0 315.0 L 810.0 316.0 L 806.0 314.0 L 788.0 324.0 L 788.0 328.0 L 816.0 314.0 L 817.0 316.0 L 812.0 320.0 Z M 143.0 285.0 L 138.0 291.0 L 134.0 292.0 L 134.0 306.0 L 135.0 302.0 L 140.0 302.0 L 140.0 293.0 L 142.0 292.0 L 146.0 294.0 L 151.0 289.0 Z" fill="#d88d44" fill-rule="evenodd"/>
    <path d="M 374.0 835.0 L 390.0 860.0 L 422.0 896.0 L 414.0 887.0 L 412.0 879.0 L 407.0 874.0 L 400.0 860.0 L 394.0 853.0 L 387.0 833.0 L 384.0 830.0 L 376.0 836.0 Z M 645.0 813.0 L 643.0 824.0 L 645.0 824.0 L 646.0 826.0 L 644.0 829.0 L 642.0 828.0 L 642.0 826.0 L 640.0 835.0 L 651.0 818.0 L 650.0 815.0 Z M 371.0 807.0 L 370.0 814.0 L 364.0 815.0 L 370.0 828.0 L 377.0 822.0 L 374.0 811.0 Z M 648.0 788.0 L 638.0 786.0 L 634.0 803.0 L 628.0 808.0 L 622.0 823.0 L 615.0 829.0 L 594.0 875.0 L 598.0 875.0 L 597.0 871.0 L 603.0 869.0 L 610.0 860.0 L 609.0 857.0 L 617.0 851.0 L 636.0 818.0 L 635.0 809.0 L 640.0 808.0 L 644.0 798.0 L 645.0 807.0 L 655.0 811.0 L 657.0 806.0 L 649.0 795.0 Z M 334.0 781.0 L 341.0 802.0 L 347.0 814.0 L 353.0 816.0 L 353.0 819.0 L 351.0 821.0 L 361.0 835.0 L 357.0 824.0 L 358.0 822.0 L 356.0 811.0 L 349.0 802.0 L 346.0 801.0 L 343.0 797.0 L 341.0 798.0 L 337.0 792.0 L 339.0 786.0 L 337.0 782.0 Z M 669.0 726.0 L 662.0 731.0 L 662.0 737.0 L 672.0 738.0 L 672.0 732.0 Z M 622.0 647.0 L 612.0 655.0 L 613.0 664.0 L 601.0 668.0 L 605.0 677.0 L 595.0 685.0 L 595.0 694.0 L 576.0 708.0 L 571.0 728.0 L 576.0 731.0 L 570.0 733.0 L 571.0 741.0 L 578.0 739.0 L 581.0 744.0 L 594.0 702.0 L 622.0 653.0 Z M 378.0 646.0 L 377.0 651.0 L 409.0 708.0 L 423.0 756.0 L 430.0 754.0 L 432.0 758.0 L 432.0 746.0 L 424.0 748.0 L 420.0 744.0 L 422.0 736.0 L 431.0 737.0 L 425.0 709.0 L 422.0 710.0 L 414.0 698.0 L 416.0 692.0 L 412.0 685.0 L 399.0 680.0 L 398.0 670.0 L 389.0 664.0 L 390.0 657.0 L 387.0 654.0 L 381.0 655.0 Z M 413.0 707.0 L 416.0 707.0 L 420.0 711.0 L 419.0 717.0 L 422.0 722.0 L 421.0 727.0 L 419.0 727.0 L 416.0 722.0 L 412.0 711.0 Z M 489.0 623.0 L 485.0 628.0 L 485.0 633.0 L 490.0 636.0 L 490.0 644.0 L 482.0 648.0 L 482.0 650.0 L 490.0 660.0 L 494.0 626.0 Z M 455.0 622.0 L 459.0 639.0 L 459.0 659.0 L 461.0 659.0 L 464.0 652.0 L 470.0 649.0 L 466.0 645.0 L 463.0 648.0 L 461.0 647.0 L 459.0 638.0 L 459.0 628.0 Z M 546.0 621.0 L 539.0 631.0 L 542.0 643.0 L 541.0 648.0 L 542.0 637.0 Z M 522.0 593.0 L 513.0 605.0 L 516.0 612.0 L 514.0 616.0 L 514.0 620.0 L 516.0 623.0 L 510.0 633.0 L 513.0 636.0 L 515.0 644.0 L 519.0 647.0 L 521.0 647.0 L 522.0 643.0 L 524.0 642.0 L 523.0 631.0 L 519.0 623.0 L 524.0 618.0 L 524.0 606.0 L 528.0 600.0 L 528.0 595.0 Z M 537.0 586.0 L 535.0 589.0 L 530.0 591.0 L 530.0 594.0 L 534.0 596.0 L 538.0 595.0 L 541.0 598.0 L 532.0 613.0 L 540.0 611.0 L 544.0 613.0 L 547.0 618.0 L 546.0 607.0 Z M 535.0 519.0 L 526.0 536.0 L 530.0 539.0 L 531.0 546.0 L 533.0 547.0 L 533.0 543.0 L 536.0 542.0 L 532.0 539.0 L 530.0 531.0 L 532.0 529.0 L 538.0 530.0 L 539.0 528.0 L 538.0 523.0 Z M 187.0 450.0 L 191.0 452.0 L 193.0 458.0 L 198.0 463.0 L 202.0 463.0 L 202.0 466.0 L 212.0 475.0 L 225.0 483.0 L 229.0 481.0 L 209.0 467.0 L 207.0 463.0 L 200.0 459.0 L 197.0 460.0 L 195.0 458.0 L 196.0 454.0 L 191.0 449.0 Z M 817.0 447.0 L 811.0 447.0 L 805.0 455.0 L 797.0 462.0 L 796.0 466.0 L 792.0 466.0 L 783.0 473.0 L 778.0 480.0 L 776.0 479.0 L 763.0 487.0 L 765.0 488.0 L 790.0 474.0 Z M 483.0 430.0 L 486.0 436.0 L 493.0 436.0 L 491.0 440.0 L 485.0 441.0 L 487.0 444.0 L 485.0 447.0 L 490.0 466.0 L 492.0 467.0 L 496.0 490.0 L 504.0 493.0 L 511.0 464.0 L 510.0 458.0 L 514.0 453.0 L 519.0 438.0 L 515.0 441.0 L 513.0 439.0 L 518.0 430.0 L 501.0 438.0 Z M 430.0 422.0 L 398.0 431.0 L 368.0 450.0 L 362.0 469.0 L 372.0 467.0 L 354.0 490.0 L 356.0 500.0 L 345.0 506.0 L 346.0 511.0 L 376.0 490.0 L 383.0 491.0 L 386.0 516.0 L 388.0 502.0 L 411.0 539.0 L 451.0 581.0 L 463.0 570.0 L 465.0 584.0 L 454.0 619.0 L 457.0 613.0 L 469.0 615.0 L 479.0 601.0 L 482.0 607.0 L 479.0 595.0 L 494.0 591.0 L 463.0 514.0 L 458.0 517.0 L 459.0 532.0 L 443.0 520.0 L 448.0 504.0 L 463.0 500.0 L 447.0 482.0 L 448.0 475.0 L 463.0 488.0 L 473.0 486.0 L 461.0 471.0 L 454.0 472.0 L 438.0 425.0 Z M 465.0 583.0 L 471.0 580.0 L 476.0 585.0 L 477.0 589.0 L 474.0 590.0 L 473.0 588.0 L 467.0 588.0 L 465.0 586.0 Z M 447.0 570.0 L 454.0 569.0 L 458.0 572.0 L 458.0 574.0 L 452.0 577.0 L 447.0 573.0 Z M 634.0 448.0 L 603.0 431.0 L 559.0 420.0 L 563.0 425.0 L 553.0 458.0 L 529.0 485.0 L 552.0 481.0 L 553.0 487.0 L 537.0 501.0 L 538.0 507.0 L 547.0 501.0 L 538.0 514.0 L 563.0 546.0 L 554.0 549.0 L 541.0 535.0 L 541.0 545.0 L 534.0 550.0 L 541.0 560.0 L 531.0 561.0 L 522.0 544.0 L 508.0 593.0 L 523.0 582.0 L 537.0 581.0 L 538.0 568.0 L 550.0 580.0 L 587.0 542.0 L 611.0 504.0 L 620.0 505.0 L 617.0 494.0 L 626.0 485.0 L 635.0 488.0 L 628.0 497.0 L 655.0 511.0 L 655.0 503.0 L 644.0 499.0 L 645.0 487.0 L 635.0 485.0 L 626.0 466.0 L 641.0 469.0 Z M 544.0 569.0 L 547.0 566.0 L 551.0 566.0 L 555.0 568.0 L 555.0 571.0 L 552.0 574.0 L 546.0 574.0 L 544.0 572.0 Z M 844.0 400.0 L 839.0 401.0 L 835.0 410.0 L 835.0 417.0 L 831.0 418.0 L 827.0 424.0 L 828.0 429.0 L 836.0 417.0 Z M 860.0 350.0 L 858.0 351.0 L 857.0 359.0 L 852.0 363.0 L 850.0 372.0 L 852.0 378.0 L 849.0 382.0 L 846.0 383.0 L 846.0 395.0 L 853.0 376.0 Z M 140.0 303.0 L 135.0 303.0 L 134.0 307.0 L 136.0 320.0 L 141.0 315.0 Z M 169.0 300.0 L 169.0 305.0 L 188.0 312.0 L 194.0 318.0 L 199.0 318.0 L 195.0 314.0 Z M 151.0 290.0 L 147.0 295.0 L 158.0 302.0 L 157.0 300.0 L 160.0 294.0 Z M 856.0 289.0 L 851.0 288.0 L 843.0 293.0 L 848.0 299.0 L 857.0 293.0 Z M 867.0 279.0 L 856.0 285.0 L 866.0 293.0 L 866.0 297.0 L 861.0 300.0 L 859.0 320.0 L 861.0 321.0 L 863.0 326.0 L 863.0 330.0 L 860.0 334.0 L 861.0 344.0 L 867.0 309.0 Z M 135.0 279.0 L 133.0 297.0 L 133.0 292.0 L 138.0 290.0 L 143.0 284.0 Z" fill="#d4873c" fill-rule="evenodd"/>
    <path d="M 568.0 392.0 L 594.0 397.0 L 613.0 405.0 L 604.0 399.0 L 589.0 393.0 Z M 439.0 393.0 L 417.0 392.0 L 405.0 395.0 L 394.0 402.0 L 414.0 395.0 L 425.0 393.0 Z M 568.0 363.0 L 579.0 362.0 L 600.0 366.0 L 613.0 371.0 L 625.0 378.0 L 614.0 369.0 L 603.0 364.0 L 595.0 362.0 Z M 427.0 362.0 L 404.0 362.0 L 390.0 367.0 L 376.0 378.0 L 385.0 372.0 L 403.0 365.0 Z M 571.0 327.0 L 572.0 329.0 L 588.0 324.0 L 609.0 324.0 L 622.0 328.0 L 632.0 333.0 L 639.0 339.0 L 632.0 331.0 L 626.0 327.0 L 605.0 320.0 L 586.0 321.0 L 578.0 323.0 Z M 373.0 328.0 L 376.0 330.0 L 384.0 327.0 L 385.0 325.0 L 387.0 326.0 L 392.0 324.0 L 413.0 324.0 L 426.0 328.0 L 427.0 327.0 L 425.0 324.0 L 414.0 321.0 L 396.0 320.0 L 387.0 322.0 L 386.0 324.0 L 383.0 323.0 Z M 603.0 292.0 L 620.0 292.0 L 627.0 294.0 L 629.0 291.0 L 619.0 289.0 L 606.0 289.0 L 607.0 291.0 Z M 397.0 292.0 L 395.0 291.0 L 396.0 289.0 L 393.0 288.0 L 371.0 291.0 L 372.0 294.0 L 379.0 292.0 L 387.0 292.0 L 388.0 290.0 Z M 675.0 234.0 L 675.0 238.0 L 688.0 241.0 L 703.0 250.0 L 705.0 249.0 L 696.0 242.0 Z M 723.0 186.0 L 741.0 187.0 L 750.0 192.0 L 755.0 197.0 L 747.0 188.0 L 742.0 185.0 L 730.0 184.0 L 729.0 182.0 Z M 765.0 165.0 L 757.0 158.0 L 757.0 156.0 L 754.0 155.0 L 747.0 158.0 L 739.0 158.0 L 732.0 165.0 L 737.0 162.0 L 749.0 159.0 L 754.0 159.0 Z M 235.0 166.0 L 240.0 162.0 L 249.0 159.0 L 257.0 160.0 L 264.0 163.0 L 265.0 162.0 L 262.0 158.0 L 258.0 159.0 L 247.0 157.0 L 245.0 155.0 L 245.0 157.0 Z M 756.0 114.0 L 757.0 125.0 L 753.0 128.0 L 754.0 130.0 L 763.0 131.0 L 764.0 130.0 L 760.0 126.0 L 758.0 114.0 Z M 250.0 96.0 L 247.0 97.0 L 245.0 102.0 L 241.0 126.0 L 239.0 128.0 L 240.0 130.0 L 246.0 130.0 L 244.0 126.0 L 244.0 118.0 L 242.0 117.0 L 242.0 115.0 L 244.0 114.0 L 245.0 116.0 Z M 727.0 49.0 L 737.0 64.0 L 747.0 84.0 L 755.0 108.0 L 756.0 104.0 L 751.0 90.0 L 741.0 70.0 Z" fill="#a58e75" fill-rule="evenodd"/>
    <path d="M 548.0 736.0 L 543.0 745.0 L 549.0 746.0 L 548.0 751.0 L 546.0 752.0 L 558.0 765.0 L 562.0 759.0 L 567.0 759.0 L 561.0 749.0 L 551.0 743.0 Z M 453.0 734.0 L 449.0 739.0 L 439.0 746.0 L 437.0 751.0 L 435.0 752.0 L 434.0 761.0 L 442.0 756.0 L 445.0 756.0 L 447.0 760.0 L 461.0 747.0 L 454.0 739.0 Z M 669.0 681.0 L 652.0 763.0 L 644.0 760.0 L 623.0 815.0 L 574.0 900.0 L 601.0 872.0 L 597.0 865.0 L 632.0 805.0 L 636.0 788.0 L 648.0 787.0 L 658.0 806.0 L 672.0 756.0 L 672.0 739.0 L 661.0 737.0 L 666.0 726.0 L 674.0 730.0 L 686.0 756.0 Z M 669.0 698.0 L 672.0 698.0 L 676.0 701.0 L 675.0 705.0 L 671.0 708.0 L 668.0 706.0 L 667.0 703.0 Z M 335.0 675.0 L 324.0 699.0 L 315.0 755.0 L 328.0 730.0 L 338.0 795.0 L 355.0 809.0 L 349.0 818.0 L 357.0 801.0 L 365.0 815.0 L 370.0 806.0 L 374.0 809.0 L 374.0 836.0 L 382.0 830.0 L 388.0 833.0 L 427.0 901.0 L 380.0 820.0 L 357.0 762.0 L 347.0 761.0 L 334.0 709.0 Z M 558.0 420.0 L 547.0 421.0 L 532.0 429.0 L 535.0 431.0 L 546.0 425.0 L 558.0 423.0 Z M 277.0 359.0 L 273.0 366.0 L 287.0 386.0 L 298.0 410.0 L 313.0 431.0 L 329.0 444.0 L 331.0 442.0 L 330.0 434.0 L 317.0 402.0 L 305.0 386.0 Z M 747.0 343.0 L 721.0 361.0 L 694.0 388.0 L 677.0 416.0 L 670.0 443.0 L 674.0 443.0 L 689.0 429.0 L 703.0 410.0 L 723.0 371.0 Z" fill="#c87b34" fill-rule="evenodd"/>
    <path d="M 562.0 760.0 L 559.0 766.0 L 570.0 784.0 L 573.0 793.0 L 568.0 762.0 L 566.0 760.0 Z M 445.0 757.0 L 442.0 757.0 L 433.0 762.0 L 429.0 782.0 L 430.0 787.0 L 437.0 773.0 L 447.0 759.0 Z M 341.0 640.0 L 328.0 687.0 L 334.0 679.0 L 335.0 709.0 L 351.0 766.0 L 353.0 760.0 L 358.0 762.0 L 380.0 818.0 L 428.0 902.0 L 483.0 958.0 L 429.0 881.0 L 396.0 797.0 L 381.0 774.0 L 382.0 791.0 L 358.0 743.0 L 346.0 704.0 Z M 660.0 639.0 L 655.0 702.0 L 644.0 740.0 L 619.0 790.0 L 619.0 775.0 L 606.0 795.0 L 571.0 882.0 L 517.0 959.0 L 578.0 897.0 L 622.0 815.0 L 643.0 760.0 L 648.0 759.0 L 649.0 767.0 L 660.0 706.0 L 665.0 707.0 L 665.0 683.0 L 672.0 685.0 Z M 646.0 631.0 L 624.0 645.0 L 626.0 649.0 L 595.0 703.0 L 575.0 775.0 L 578.0 785.0 L 601.0 720.0 L 631.0 691.0 L 641.0 674.0 L 647.0 641.0 L 629.0 660.0 Z M 355.0 631.0 L 372.0 661.0 L 353.0 640.0 L 356.0 667.0 L 368.0 689.0 L 406.0 735.0 L 422.0 782.0 L 425.0 777.0 L 421.0 750.0 L 406.0 704.0 L 375.0 644.0 Z M 645.0 571.0 L 639.0 572.0 L 638.0 578.0 L 632.0 586.0 L 628.0 588.0 L 620.0 588.0 L 617.0 586.0 L 614.0 588.0 L 613.0 591.0 L 620.0 595.0 L 630.0 595.0 L 620.0 595.0 L 616.0 592.0 L 616.0 590.0 L 631.0 589.0 L 640.0 581.0 L 641.0 578.0 L 644.0 581.0 Z M 356.0 572.0 L 356.0 578.0 L 356.0 576.0 L 358.0 575.0 L 361.0 578.0 L 362.0 582.0 L 368.0 588.0 L 373.0 590.0 L 385.0 591.0 L 383.0 594.0 L 379.0 595.0 L 382.0 595.0 L 388.0 591.0 L 387.0 587.0 L 385.0 586.0 L 380.0 588.0 L 373.0 588.0 L 369.0 586.0 L 365.0 582.0 L 362.0 572.0 Z M 613.0 504.0 L 594.0 535.0 L 550.0 583.0 L 538.0 571.0 L 536.0 583.0 L 548.0 609.0 L 543.0 668.0 L 560.0 622.0 L 542.0 590.0 L 556.0 599.0 L 565.0 579.0 L 597.0 543.0 L 610.0 521.0 Z M 387.0 503.0 L 391.0 522.0 L 404.0 544.0 L 436.0 579.0 L 445.0 599.0 L 460.0 588.0 L 441.0 621.0 L 458.0 668.0 L 452.0 613.0 L 465.0 582.0 L 462.0 570.0 L 451.0 584.0 L 441.0 568.0 L 408.0 537.0 Z M 728.0 502.0 L 715.0 509.0 L 713.0 508.0 L 712.0 511.0 L 684.0 531.0 L 679.0 536.0 L 676.0 549.0 L 687.0 542.0 L 718.0 509.0 Z M 273.0 502.0 L 285.0 511.0 L 311.0 540.0 L 325.0 549.0 L 322.0 539.0 L 323.0 537.0 L 289.0 511.0 L 288.0 508.0 L 286.0 509.0 L 283.0 506.0 Z M 633.0 500.0 L 633.0 503.0 L 639.0 510.0 L 640.0 516.0 L 651.0 522.0 L 645.0 515.0 L 647.0 513.0 L 665.0 526.0 L 664.0 518.0 L 662.0 518.0 L 650.0 509.0 Z M 369.0 498.0 L 346.0 512.0 L 339.0 518.0 L 337.0 518.0 L 336.0 526.0 L 355.0 511.0 L 357.0 513.0 L 350.0 522.0 L 360.0 516.0 L 369.0 504.0 Z M 298.0 411.0 L 316.0 449.0 L 328.0 462.0 L 340.0 468.0 L 345.0 455.0 L 343.0 434.0 L 321.0 408.0 L 332.0 439.0 L 329.0 445.0 L 312.0 431.0 Z M 703.0 411.0 L 690.0 429.0 L 674.0 444.0 L 669.0 443.0 L 669.0 437.0 L 681.0 406.0 L 659.0 432.0 L 655.0 440.0 L 655.0 451.0 L 661.0 468.0 L 674.0 461.0 L 683.0 451.0 Z" fill="#9a571e" fill-rule="evenodd"/>
    <path d="M 608.0 318.0 L 608.0 320.0 L 618.0 323.0 L 620.0 319.0 L 623.0 319.0 L 624.0 322.0 L 621.0 324.0 L 631.0 329.0 L 640.0 338.0 L 644.0 332.0 L 644.0 330.0 L 636.0 334.0 L 635.0 330.0 L 638.0 327.0 L 638.0 325.0 L 630.0 319.0 L 626.0 320.0 L 625.0 317.0 L 622.0 315.0 L 611.0 315.0 Z M 375.0 317.0 L 379.0 324.0 L 386.0 321.0 L 394.0 320.0 L 392.0 317.0 L 390.0 318.0 L 384.0 314.0 L 380.0 314.0 Z M 608.0 288.0 L 621.0 288.0 L 636.0 292.0 L 650.0 300.0 L 657.0 307.0 L 656.0 304.0 L 660.0 298.0 L 655.0 294.0 L 648.0 295.0 L 645.0 292.0 L 645.0 288.0 L 639.0 285.0 L 624.0 283.0 L 613.0 285.0 Z M 391.0 286.0 L 376.0 283.0 L 363.0 285.0 L 350.0 291.0 L 353.0 295.0 L 353.0 299.0 L 367.0 291.0 L 379.0 288.0 L 391.0 288.0 Z M 645.0 258.0 L 656.0 260.0 L 669.0 265.0 L 674.0 268.0 L 684.0 278.0 L 685.0 281.0 L 689.0 274.0 L 689.0 270.0 L 681.0 262.0 L 671.0 257.0 L 654.0 254.0 L 647.0 255.0 Z M 357.0 256.0 L 340.0 254.0 L 328.0 258.0 L 317.0 265.0 L 314.0 273.0 L 316.0 277.0 L 318.0 277.0 L 329.0 266.0 L 344.0 260.0 L 357.0 258.0 Z M 676.0 233.0 L 695.0 240.0 L 701.0 244.0 L 709.0 253.0 L 712.0 247.0 L 706.0 245.0 L 708.0 239.0 L 702.0 234.0 L 695.0 233.0 L 692.0 231.0 L 679.0 232.0 L 678.0 234.0 Z M 321.0 233.0 L 319.0 231.0 L 313.0 231.0 L 311.0 233.0 L 300.0 234.0 L 298.0 236.0 L 299.0 245.0 L 297.0 247.0 L 304.0 241.0 L 312.0 237.0 L 321.0 235.0 Z M 707.0 208.0 L 709.0 210.0 L 720.0 212.0 L 730.0 219.0 L 729.0 217.0 L 732.0 211.0 L 734.0 210.0 L 725.0 205.0 L 715.0 205.0 Z M 292.0 207.0 L 286.0 205.0 L 277.0 205.0 L 272.0 207.0 L 272.0 218.0 L 268.0 222.0 L 275.0 215.0 L 288.0 210.0 L 292.0 210.0 Z" fill="#63574e" fill-rule="evenodd"/>
    <path d="M 365.0 322.0 L 355.0 332.0 L 358.0 339.0 L 360.0 339.0 L 367.0 331.0 L 364.0 325.0 Z M 592.0 319.0 L 607.0 319.0 L 611.0 314.0 L 618.0 314.0 L 622.0 316.0 L 623.0 315.0 L 613.0 312.0 L 604.0 312.0 L 600.0 315.0 L 594.0 315.0 Z M 382.0 313.0 L 395.0 319.0 L 400.0 319.0 L 402.0 313.0 L 404.0 312.0 Z M 350.0 292.0 L 345.0 294.0 L 339.0 300.0 L 342.0 307.0 L 342.0 300.0 L 344.0 298.0 L 348.0 300.0 L 353.0 298.0 Z M 298.0 235.0 L 292.0 240.0 L 291.0 251.0 L 293.0 251.0 L 298.0 245.0 Z" fill="#594535" fill-rule="evenodd"/>
    <path d="M 551.0 394.0 L 553.0 399.0 L 562.0 400.0 L 565.0 395.0 L 556.0 396.0 L 555.0 394.0 L 564.0 391.0 L 588.0 391.0 L 590.0 389.0 L 593.0 393.0 L 614.0 404.0 L 615.0 410.0 L 620.0 411.0 L 623.0 409.0 L 622.0 405.0 L 616.0 399.0 L 589.0 386.0 L 572.0 384.0 L 568.0 388.0 L 558.0 388.0 Z M 451.0 393.0 L 449.0 389.0 L 442.0 386.0 L 433.0 389.0 L 428.0 384.0 L 422.0 384.0 L 396.0 392.0 L 391.0 395.0 L 383.0 405.0 L 388.0 404.0 L 406.0 393.0 L 414.0 391.0 L 429.0 390.0 L 445.0 393.0 L 445.0 396.0 L 436.0 396.0 L 442.0 398.0 L 450.0 398.0 Z M 419.0 364.0 L 401.0 367.0 L 389.0 372.0 L 389.0 374.0 L 391.0 374.0 L 393.0 377.0 L 411.0 375.0 Z M 580.0 364.0 L 601.0 379.0 L 614.0 379.0 L 621.0 385.0 L 628.0 387.0 L 643.0 401.0 L 637.0 381.0 L 617.0 362.0 L 619.0 364.0 L 618.0 370.0 L 626.0 377.0 L 625.0 379.0 L 620.0 376.0 L 616.0 380.0 L 613.0 378.0 L 616.0 374.0 L 602.0 368.0 L 599.0 372.0 L 595.0 372.0 L 594.0 370.0 L 599.0 367.0 Z M 554.0 363.0 L 557.0 369.0 L 566.0 371.0 L 569.0 365.0 L 573.0 364.0 L 564.0 364.0 L 565.0 362.0 L 596.0 360.0 L 608.0 365.0 L 615.0 361.0 L 595.0 354.0 L 586.0 359.0 L 580.0 353.0 L 577.0 353.0 L 564.0 361.0 L 556.0 360.0 Z M 448.0 364.0 L 445.0 360.0 L 432.0 361.0 L 426.0 353.0 L 397.0 356.0 L 373.0 371.0 L 367.0 378.0 L 367.0 385.0 L 378.0 382.0 L 381.0 376.0 L 379.0 378.0 L 377.0 376.0 L 384.0 369.0 L 402.0 361.0 L 431.0 361.0 L 432.0 369.0 L 429.0 374.0 L 444.0 372.0 Z M 366.0 338.0 L 360.0 341.0 L 357.0 339.0 L 354.0 333.0 L 353.0 339.0 L 347.0 347.0 L 350.0 356.0 L 355.0 353.0 L 356.0 347.0 L 358.0 345.0 L 366.0 344.0 Z M 617.0 333.0 L 619.0 336.0 L 628.0 338.0 L 636.0 346.0 L 642.0 346.0 L 645.0 354.0 L 648.0 355.0 L 654.0 363.0 L 656.0 362.0 L 656.0 353.0 L 652.0 348.0 L 647.0 333.0 L 645.0 339.0 L 641.0 342.0 L 631.0 334.0 L 621.0 329.0 Z M 590.0 325.0 L 592.0 325.0 L 595.0 328.0 L 594.0 330.0 L 597.0 335.0 L 601.0 335.0 L 605.0 331.0 L 612.0 329.0 L 613.0 327.0 L 606.0 325.0 Z M 389.0 326.0 L 394.0 328.0 L 399.0 333.0 L 401.0 333.0 L 405.0 327.0 L 405.0 325.0 Z M 610.0 311.0 L 604.0 311.0 L 588.0 315.0 L 586.0 318.0 L 582.0 318.0 L 579.0 322.0 L 591.0 319.0 L 591.0 317.0 L 594.0 314.0 L 600.0 314.0 L 604.0 311.0 Z M 643.0 303.0 L 643.0 305.0 L 640.0 308.0 L 642.0 312.0 L 646.0 314.0 L 653.0 314.0 L 656.0 320.0 L 667.0 330.0 L 673.0 340.0 L 676.0 330.0 L 675.0 321.0 L 670.0 309.0 L 660.0 297.0 L 662.0 301.0 L 658.0 306.0 L 658.0 310.0 L 645.0 302.0 Z M 341.0 297.0 L 334.0 305.0 L 329.0 317.0 L 329.0 323.0 L 325.0 328.0 L 325.0 332.0 L 328.0 335.0 L 333.0 332.0 L 333.0 328.0 L 339.0 324.0 L 344.0 317.0 L 353.0 315.0 L 356.0 310.0 L 352.0 304.0 L 342.0 311.0 L 342.0 308.0 L 338.0 301.0 Z M 611.0 297.0 L 615.0 298.0 L 616.0 296.0 L 622.0 296.0 L 627.0 299.0 L 634.0 298.0 L 628.0 295.0 L 613.0 293.0 Z M 324.0 275.0 L 315.0 283.0 L 310.0 277.0 L 309.0 273.0 L 307.0 276.0 L 307.0 285.0 L 303.0 289.0 L 304.0 296.0 L 308.0 299.0 L 315.0 295.0 L 318.0 284.0 L 320.0 282.0 L 326.0 281.0 L 327.0 279.0 L 324.0 277.0 Z M 670.0 273.0 L 668.0 277.0 L 671.0 281.0 L 674.0 281.0 L 677.0 278.0 L 681.0 279.0 L 681.0 289.0 L 687.0 296.0 L 693.0 298.0 L 698.0 291.0 L 698.0 286.0 L 694.0 282.0 L 694.0 277.0 L 692.0 273.0 L 688.0 281.0 L 682.0 280.0 L 672.0 272.0 Z M 694.0 251.0 L 693.0 253.0 L 695.0 256.0 L 708.0 260.0 L 707.0 266.0 L 712.0 272.0 L 718.0 271.0 L 722.0 266.0 L 724.0 261.0 L 717.0 247.0 L 716.0 250.0 L 710.0 256.0 L 699.0 248.0 Z M 293.0 238.0 L 284.0 247.0 L 278.0 258.0 L 279.0 265.0 L 281.0 267.0 L 282.0 272.0 L 284.0 273.0 L 290.0 271.0 L 293.0 267.0 L 293.0 257.0 L 299.0 253.0 L 300.0 249.0 L 293.0 255.0 L 291.0 254.0 L 292.0 252.0 L 290.0 251.0 L 291.0 240.0 Z M 738.0 214.0 L 732.0 220.0 L 735.0 226.0 L 730.0 233.0 L 732.0 236.0 L 739.0 239.0 L 742.0 242.0 L 743.0 247.0 L 746.0 250.0 L 748.0 247.0 L 751.0 246.0 L 751.0 239.0 L 746.0 225.0 L 742.0 220.0 L 742.0 217.0 Z M 266.0 210.0 L 257.0 220.0 L 257.0 236.0 L 268.0 235.0 L 271.0 233.0 L 269.0 226.0 L 265.0 229.0 L 263.0 228.0 L 269.0 220.0 L 265.0 212.0 Z M 267.0 179.0 L 256.0 179.0 L 248.0 183.0 L 242.0 189.0 L 238.0 197.0 L 238.0 201.0 L 240.0 203.0 L 245.0 202.0 L 250.0 194.0 L 247.0 197.0 L 245.0 195.0 L 254.0 187.0 L 254.0 181.0 L 260.0 184.0 L 264.0 183.0 Z M 738.0 178.0 L 741.0 179.0 L 742.0 184.0 L 749.0 188.0 L 755.0 194.0 L 754.0 196.0 L 752.0 196.0 L 746.0 191.0 L 747.0 198.0 L 750.0 202.0 L 757.0 204.0 L 761.0 204.0 L 764.0 202.0 L 765.0 196.0 L 753.0 183.0 L 745.0 179.0 Z M 242.0 151.0 L 235.0 156.0 L 235.0 161.0 L 230.0 162.0 L 230.0 171.0 L 237.0 174.0 L 240.0 172.0 L 238.0 169.0 L 238.0 165.0 L 235.0 168.0 L 233.0 166.0 L 237.0 161.0 L 243.0 157.0 Z M 757.0 150.0 L 759.0 152.0 L 759.0 158.0 L 768.0 167.0 L 767.0 170.0 L 771.0 172.0 L 773.0 170.0 L 773.0 166.0 L 767.0 164.0 L 765.0 162.0 L 766.0 156.0 Z M 241.0 112.0 L 239.0 112.0 L 238.0 115.0 L 235.0 115.0 L 232.0 118.0 L 232.0 124.0 L 239.0 125.0 Z M 757.0 103.0 L 762.0 125.0 L 764.0 126.0 L 769.0 123.0 L 770.0 117.0 L 764.0 111.0 L 761.0 110.0 L 760.0 105.0 Z M 250.0 100.0 L 245.0 125.0 L 245.0 123.0 L 251.0 119.0 L 253.0 107.0 L 252.0 102.0 Z M 748.0 92.0 L 747.0 109.0 L 749.0 111.0 L 753.0 110.0 L 754.0 112.0 L 752.0 113.0 L 752.0 116.0 L 750.0 117.0 L 747.0 124.0 L 753.0 127.0 L 756.0 124.0 L 754.0 111.0 Z" fill="#45372f" fill-rule="evenodd"/>
    <path d="M 608.0 524.0 L 593.0 551.0 L 563.0 584.0 L 557.0 601.0 L 542.0 588.0 L 564.0 629.0 L 564.0 589.0 L 571.0 577.0 L 594.0 553.0 Z M 393.0 524.0 L 407.0 553.0 L 436.0 587.0 L 437.0 628.0 L 459.0 588.0 L 444.0 600.0 L 437.0 582.0 L 410.0 554.0 Z M 439.0 424.0 L 454.0 461.0 L 484.0 502.0 L 450.0 482.0 L 475.0 518.0 L 456.0 502.0 L 479.0 541.0 L 496.0 589.0 L 490.0 666.0 L 455.0 738.0 L 480.0 762.0 L 502.0 773.0 L 546.0 738.0 L 511.0 667.0 L 505.0 587.0 L 521.0 543.0 L 545.0 502.0 L 526.0 517.0 L 550.0 482.0 L 517.0 502.0 L 548.0 460.0 L 562.0 424.0 L 543.0 428.0 L 518.0 444.0 L 501.0 511.0 L 482.0 442.0 Z M 308.0 12.0 L 261.0 51.0 L 232.0 92.0 L 207.0 166.0 L 209.0 209.0 L 220.0 226.0 L 224.0 251.0 L 240.0 265.0 L 247.0 283.0 L 303.0 331.0 L 338.0 375.0 L 355.0 425.0 L 335.0 411.0 L 280.0 349.0 L 131.0 264.0 L 125.0 280.0 L 129.0 337.0 L 149.0 403.0 L 179.0 454.0 L 216.0 487.0 L 274.0 512.0 L 333.0 573.0 L 334.0 621.0 L 306.0 734.0 L 308.0 795.0 L 316.0 780.0 L 332.0 822.0 L 366.0 870.0 L 501.0 988.0 L 640.0 864.0 L 666.0 827.0 L 684.0 780.0 L 693.0 795.0 L 695.0 738.0 L 665.0 610.0 L 668.0 572.0 L 728.0 511.0 L 783.0 488.0 L 827.0 447.0 L 849.0 409.0 L 867.0 359.0 L 875.0 274.0 L 870.0 264.0 L 744.0 333.0 L 701.0 366.0 L 665.0 412.0 L 647.0 424.0 L 651.0 401.0 L 679.0 351.0 L 702.0 326.0 L 721.0 315.0 L 729.0 299.0 L 754.0 282.0 L 759.0 267.0 L 778.0 249.0 L 780.0 227.0 L 792.0 208.0 L 794.0 168.0 L 772.0 98.0 L 737.0 48.0 L 692.0 12.0 L 717.0 50.0 L 734.0 93.0 L 739.0 131.0 L 732.0 139.0 L 730.0 159.0 L 697.0 206.0 L 683.0 210.0 L 668.0 229.0 L 648.0 234.0 L 632.0 255.0 L 615.0 261.0 L 599.0 284.0 L 583.0 292.0 L 571.0 318.0 L 548.0 339.0 L 547.0 357.0 L 531.0 381.0 L 532.0 400.0 L 524.0 416.0 L 502.0 426.0 L 482.0 419.0 L 469.0 400.0 L 469.0 379.0 L 455.0 360.0 L 453.0 339.0 L 430.0 318.0 L 420.0 295.0 L 401.0 284.0 L 386.0 261.0 L 369.0 255.0 L 353.0 234.0 L 333.0 229.0 L 319.0 211.0 L 304.0 206.0 L 270.0 157.0 L 269.0 140.0 L 262.0 131.0 L 268.0 89.0 Z M 556.0 865.0 L 549.0 881.0 L 539.0 893.0 L 521.0 904.0 L 510.0 907.0 L 491.0 907.0 L 470.0 899.0 L 456.0 887.0 L 445.0 867.0 L 448.0 865.0 L 491.0 875.0 L 509.0 875.0 Z M 541.0 790.0 L 539.0 793.0 L 529.0 798.0 L 527.0 797.0 L 533.0 791.0 L 537.0 789.0 Z M 460.0 790.0 L 465.0 789.0 L 472.0 793.0 L 475.0 797.0 L 472.0 798.0 L 461.0 792.0 Z M 661.0 639.0 L 688.0 757.0 L 673.0 731.0 L 668.0 784.0 L 639.0 837.0 L 644.0 802.0 L 605.0 869.0 L 520.0 956.0 L 576.0 871.0 L 603.0 798.0 L 620.0 773.0 L 618.0 789.0 L 652.0 713.0 Z M 340.0 638.0 L 348.0 709.0 L 357.0 738.0 L 383.0 789.0 L 381.0 773.0 L 396.0 795.0 L 427.0 875.0 L 481.0 956.0 L 398.0 872.0 L 372.0 835.0 L 357.0 801.0 L 362.0 835.0 L 358.0 834.0 L 332.0 782.0 L 328.0 731.0 L 313.0 757.0 Z M 625.0 573.0 L 625.0 571.0 L 629.0 568.0 L 632.0 568.0 L 634.0 570.0 L 634.0 572.0 L 630.0 575.0 L 627.0 575.0 Z M 368.0 570.0 L 372.0 568.0 L 377.0 573.0 L 375.0 575.0 L 371.0 575.0 L 368.0 572.0 Z M 645.0 565.0 L 646.0 578.0 L 644.0 584.0 L 635.0 594.0 L 623.0 597.0 L 618.0 596.0 L 611.0 591.0 L 609.0 587.0 L 613.0 582.0 L 615.0 582.0 L 621.0 587.0 L 628.0 587.0 L 633.0 584.0 L 637.0 577.0 L 637.0 566.0 L 640.0 564.0 Z M 356.0 565.0 L 361.0 564.0 L 365.0 566.0 L 364.0 577.0 L 367.0 583.0 L 371.0 586.0 L 379.0 587.0 L 387.0 582.0 L 392.0 588.0 L 385.0 595.0 L 379.0 597.0 L 374.0 597.0 L 366.0 594.0 L 361.0 590.0 L 356.0 582.0 Z M 407.0 419.0 L 447.0 415.0 L 485.0 439.0 L 483.0 429.0 L 499.0 436.0 L 518.0 429.0 L 514.0 440.0 L 554.0 415.0 L 610.0 425.0 L 612.0 429.0 L 582.0 424.0 L 641.0 446.0 L 647.0 477.0 L 642.0 476.0 L 665.0 517.0 L 663.0 526.0 L 646.0 514.0 L 669.0 538.0 L 665.0 553.0 L 633.0 558.0 L 663.0 540.0 L 638.0 542.0 L 574.0 607.0 L 586.0 603.0 L 553.0 688.0 L 567.0 753.0 L 594.0 640.0 L 592.0 623.0 L 605.0 612.0 L 635.0 609.0 L 619.0 606.0 L 643.0 599.0 L 662.0 567.0 L 657.0 616.0 L 630.0 661.0 L 647.0 641.0 L 639.0 715.0 L 599.0 759.0 L 580.0 793.0 L 568.0 759.0 L 579.0 829.0 L 570.0 849.0 L 548.0 863.0 L 525.0 865.0 L 502.0 856.0 L 504.0 847.0 L 522.0 833.0 L 524.0 822.0 L 551.0 808.0 L 556.0 784.0 L 544.0 772.0 L 544.0 778.0 L 501.0 800.0 L 457.0 778.0 L 457.0 772.0 L 445.0 784.0 L 449.0 807.0 L 475.0 821.0 L 479.0 833.0 L 498.0 851.0 L 491.0 862.0 L 453.0 863.0 L 430.0 848.0 L 422.0 831.0 L 433.0 759.0 L 421.0 793.0 L 404.0 762.0 L 360.0 711.0 L 353.0 640.0 L 371.0 662.0 L 342.0 611.0 L 340.0 566.0 L 358.0 599.0 L 382.0 606.0 L 363.0 608.0 L 392.0 611.0 L 409.0 623.0 L 407.0 641.0 L 430.0 721.0 L 433.0 754.0 L 448.0 703.0 L 445.0 675.0 L 415.0 603.0 L 427.0 607.0 L 392.0 577.0 L 367.0 545.0 L 353.0 538.0 L 337.0 540.0 L 368.0 558.0 L 336.0 553.0 L 332.0 542.0 L 356.0 512.0 L 335.0 525.0 L 341.0 503.0 L 359.0 477.0 L 353.0 478.0 L 358.0 448.0 L 383.0 434.0 L 420.0 424.0 L 390.0 427.0 Z M 550.0 394.0 L 554.0 389.0 L 561.0 386.0 L 568.0 387.0 L 572.0 383.0 L 589.0 385.0 L 616.0 398.0 L 623.0 405.0 L 623.0 410.0 L 615.0 411.0 L 614.0 408.0 L 608.0 404.0 L 601.0 405.0 L 599.0 401.0 L 595.0 399.0 L 583.0 400.0 L 580.0 398.0 L 581.0 396.0 L 566.0 395.0 L 562.0 401.0 L 553.0 400.0 L 550.0 397.0 Z M 452.0 393.0 L 450.0 399.0 L 442.0 399.0 L 436.0 395.0 L 422.0 395.0 L 412.0 399.0 L 402.0 400.0 L 392.0 407.0 L 386.0 407.0 L 384.0 404.0 L 386.0 399.0 L 396.0 391.0 L 422.0 383.0 L 428.0 383.0 L 433.0 388.0 L 445.0 386.0 L 449.0 388.0 Z M 554.0 361.0 L 564.0 360.0 L 577.0 352.0 L 586.0 358.0 L 594.0 353.0 L 611.0 358.0 L 636.0 378.0 L 644.0 401.0 L 642.0 402.0 L 631.0 390.0 L 614.0 380.0 L 601.0 380.0 L 582.0 368.0 L 582.0 365.0 L 569.0 365.0 L 566.0 372.0 L 561.0 372.0 L 554.0 367.0 Z M 448.0 362.0 L 447.0 370.0 L 441.0 374.0 L 430.0 375.0 L 429.0 372.0 L 432.0 368.0 L 430.0 365.0 L 420.0 364.0 L 411.0 376.0 L 393.0 378.0 L 387.0 373.0 L 381.0 377.0 L 378.0 383.0 L 370.0 386.0 L 366.0 385.0 L 366.0 378.0 L 373.0 370.0 L 397.0 355.0 L 413.0 355.0 L 417.0 352.0 L 426.0 352.0 L 432.0 360.0 L 445.0 359.0 Z M 746.0 343.0 L 718.0 381.0 L 683.0 453.0 L 669.0 466.0 L 660.0 469.0 L 654.0 453.0 L 657.0 433.0 L 703.0 376.0 Z M 252.0 341.0 L 287.0 366.0 L 342.0 431.0 L 347.0 440.0 L 347.0 450.0 L 340.0 469.0 L 329.0 464.0 L 317.0 452.0 L 286.0 387.0 Z M 608.0 340.0 L 615.0 340.0 L 617.0 342.0 L 616.0 346.0 L 614.0 348.0 L 608.0 348.0 L 605.0 345.0 Z M 391.0 338.0 L 393.0 340.0 L 394.0 345.0 L 388.0 348.0 L 384.0 344.0 L 384.0 342.0 Z M 565.0 330.0 L 588.0 314.0 L 604.0 310.0 L 615.0 311.0 L 631.0 318.0 L 648.0 333.0 L 658.0 360.0 L 654.0 363.0 L 644.0 354.0 L 642.0 347.0 L 636.0 347.0 L 628.0 339.0 L 619.0 337.0 L 617.0 334.0 L 619.0 329.0 L 614.0 327.0 L 601.0 336.0 L 595.0 334.0 L 593.0 326.0 L 568.0 332.0 Z M 438.0 331.0 L 436.0 333.0 L 406.0 325.0 L 403.0 332.0 L 399.0 334.0 L 387.0 327.0 L 378.0 330.0 L 380.0 333.0 L 378.0 338.0 L 370.0 335.0 L 366.0 337.0 L 367.0 344.0 L 358.0 346.0 L 353.0 356.0 L 349.0 356.0 L 347.0 352.0 L 347.0 344.0 L 351.0 341.0 L 353.0 333.0 L 365.0 321.0 L 382.0 312.0 L 398.0 310.0 L 414.0 314.0 Z M 595.0 292.0 L 621.0 282.0 L 632.0 282.0 L 650.0 289.0 L 660.0 296.0 L 671.0 309.0 L 677.0 326.0 L 675.0 338.0 L 671.0 339.0 L 653.0 315.0 L 641.0 312.0 L 640.0 307.0 L 643.0 301.0 L 636.0 298.0 L 627.0 300.0 L 622.0 297.0 L 612.0 299.0 L 612.0 293.0 L 596.0 294.0 Z M 408.0 293.0 L 407.0 295.0 L 387.0 293.0 L 387.0 298.0 L 377.0 294.0 L 365.0 305.0 L 361.0 305.0 L 358.0 301.0 L 353.0 304.0 L 356.0 308.0 L 353.0 316.0 L 344.0 318.0 L 329.0 336.0 L 324.0 332.0 L 333.0 305.0 L 346.0 292.0 L 359.0 285.0 L 371.0 282.0 L 386.0 283.0 Z M 134.0 278.0 L 223.0 329.0 L 272.0 374.0 L 308.0 449.0 L 337.0 489.0 L 332.0 506.0 L 311.0 483.0 L 282.0 468.0 L 293.0 465.0 L 270.0 455.0 L 286.0 452.0 L 262.0 437.0 L 280.0 434.0 L 256.0 414.0 L 273.0 413.0 L 250.0 391.0 L 267.0 394.0 L 249.0 368.0 L 212.0 336.0 L 142.0 294.0 L 146.0 342.0 L 165.0 400.0 L 152.0 353.0 L 149.0 309.0 L 229.0 379.0 L 212.0 379.0 L 236.0 403.0 L 214.0 404.0 L 238.0 422.0 L 227.0 425.0 L 245.0 438.0 L 222.0 438.0 L 244.0 457.0 L 212.0 455.0 L 183.0 435.0 L 228.0 476.0 L 271.0 481.0 L 296.0 492.0 L 322.0 520.0 L 288.0 509.0 L 324.0 536.0 L 325.0 550.0 L 280.0 508.0 L 222.0 483.0 L 180.0 444.0 L 143.0 365.0 L 132.0 306.0 Z M 867.0 277.0 L 868.0 315.0 L 859.0 361.0 L 846.0 399.0 L 820.0 445.0 L 782.0 481.0 L 722.0 507.0 L 676.0 550.0 L 677.0 536.0 L 713.0 509.0 L 678.0 520.0 L 705.0 492.0 L 729.0 481.0 L 775.0 475.0 L 818.0 434.0 L 789.0 455.0 L 757.0 457.0 L 778.0 438.0 L 757.0 438.0 L 774.0 425.0 L 763.0 422.0 L 787.0 404.0 L 765.0 403.0 L 789.0 379.0 L 772.0 379.0 L 852.0 309.0 L 849.0 353.0 L 836.0 399.0 L 855.0 341.0 L 859.0 294.0 L 793.0 333.0 L 751.0 369.0 L 734.0 394.0 L 749.0 392.0 L 728.0 413.0 L 745.0 414.0 L 721.0 434.0 L 738.0 437.0 L 716.0 451.0 L 731.0 455.0 L 708.0 465.0 L 718.0 468.0 L 691.0 482.0 L 669.0 506.0 L 664.0 489.0 L 691.0 452.0 L 730.0 372.0 L 769.0 335.0 Z M 622.0 264.0 L 653.0 253.0 L 672.0 256.0 L 690.0 269.0 L 695.0 277.0 L 695.0 282.0 L 699.0 286.0 L 699.0 291.0 L 692.0 299.0 L 682.0 292.0 L 680.0 279.0 L 674.0 282.0 L 668.0 279.0 L 667.0 276.0 L 671.0 272.0 L 666.0 270.0 L 663.0 273.0 L 657.0 273.0 L 654.0 265.0 L 632.0 264.0 L 623.0 266.0 Z M 378.0 264.0 L 377.0 266.0 L 357.0 264.0 L 355.0 269.0 L 347.0 265.0 L 338.0 268.0 L 338.0 272.0 L 333.0 270.0 L 324.0 276.0 L 327.0 281.0 L 319.0 284.0 L 314.0 297.0 L 307.0 299.0 L 302.0 294.0 L 309.0 271.0 L 324.0 258.0 L 338.0 253.0 L 350.0 253.0 Z M 251.0 238.0 L 255.0 238.0 L 259.0 243.0 L 259.0 247.0 L 257.0 249.0 L 255.0 249.0 L 251.0 245.0 Z M 656.0 237.0 L 673.0 234.0 L 682.0 230.0 L 700.0 232.0 L 718.0 247.0 L 724.0 258.0 L 723.0 266.0 L 718.0 272.0 L 712.0 273.0 L 706.0 266.0 L 707.0 260.0 L 699.0 259.0 L 693.0 255.0 L 692.0 252.0 L 696.0 251.0 L 697.0 247.0 L 694.0 246.0 L 690.0 250.0 L 681.0 244.0 L 679.0 240.0 L 670.0 238.0 L 657.0 239.0 Z M 342.0 236.0 L 341.0 238.0 L 321.0 240.0 L 321.0 245.0 L 315.0 249.0 L 312.0 249.0 L 309.0 245.0 L 305.0 246.0 L 299.0 251.0 L 300.0 253.0 L 294.0 257.0 L 294.0 267.0 L 291.0 271.0 L 285.0 274.0 L 281.0 272.0 L 277.0 258.0 L 283.0 247.0 L 299.0 233.0 L 307.0 230.0 L 320.0 230.0 Z M 691.0 213.0 L 718.0 203.0 L 734.0 208.0 L 743.0 217.0 L 752.0 239.0 L 752.0 246.0 L 745.0 251.0 L 741.0 242.0 L 729.0 233.0 L 733.0 226.0 L 721.0 226.0 L 719.0 224.0 L 720.0 218.0 L 714.0 216.0 L 713.0 221.0 L 710.0 222.0 L 706.0 219.0 L 705.0 215.0 L 698.0 215.0 L 696.0 218.0 Z M 309.0 213.0 L 308.0 215.0 L 293.0 215.0 L 292.0 218.0 L 290.0 216.0 L 285.0 216.0 L 278.0 222.0 L 275.0 221.0 L 269.0 225.0 L 272.0 231.0 L 270.0 235.0 L 259.0 237.0 L 256.0 236.0 L 256.0 220.0 L 266.0 209.0 L 275.0 204.0 L 284.0 203.0 Z M 776.0 179.0 L 778.0 179.0 L 782.0 184.0 L 780.0 188.0 L 776.0 188.0 L 774.0 186.0 L 774.0 181.0 Z M 237.0 201.0 L 237.0 197.0 L 241.0 189.0 L 248.0 182.0 L 256.0 178.0 L 270.0 179.0 L 284.0 188.0 L 283.0 190.0 L 275.0 188.0 L 263.0 188.0 L 252.0 193.0 L 245.0 203.0 L 240.0 204.0 Z M 719.0 187.0 L 731.0 179.0 L 742.0 177.0 L 753.0 182.0 L 766.0 196.0 L 765.0 202.0 L 761.0 205.0 L 752.0 204.0 L 747.0 200.0 L 746.0 192.0 L 740.0 188.0 L 720.0 189.0 Z M 733.0 163.0 L 737.0 160.0 L 738.0 156.0 L 742.0 152.0 L 749.0 149.0 L 757.0 149.0 L 766.0 155.0 L 765.0 163.0 L 767.0 165.0 L 768.0 163.0 L 772.0 164.0 L 774.0 166.0 L 774.0 170.0 L 771.0 173.0 L 769.0 173.0 L 764.0 166.0 L 754.0 161.0 L 742.0 162.0 L 735.0 165.0 Z M 229.0 162.0 L 231.0 160.0 L 235.0 160.0 L 237.0 162.0 L 234.0 156.0 L 239.0 151.0 L 244.0 149.0 L 253.0 149.0 L 259.0 152.0 L 269.0 165.0 L 266.0 169.0 L 262.0 170.0 L 261.0 168.0 L 263.0 164.0 L 254.0 161.0 L 251.0 164.0 L 247.0 165.0 L 245.0 162.0 L 238.0 166.0 L 240.0 173.0 L 236.0 175.0 L 229.0 171.0 Z M 278.0 43.0 L 275.0 54.0 L 263.0 70.0 L 261.0 84.0 L 252.0 94.0 L 252.0 119.0 L 246.0 122.0 L 246.0 126.0 L 260.0 136.0 L 256.0 140.0 L 250.0 133.0 L 240.0 132.0 L 229.0 140.0 L 228.0 136.0 L 239.0 126.0 L 232.0 125.0 L 230.0 120.0 L 241.0 111.0 L 238.0 105.0 L 251.0 85.0 L 251.0 75.0 L 259.0 69.0 Z M 721.0 41.0 L 742.0 68.0 L 750.0 85.0 L 755.0 87.0 L 757.0 102.0 L 763.0 112.0 L 770.0 115.0 L 770.0 123.0 L 762.0 126.0 L 774.0 137.0 L 773.0 142.0 L 769.0 136.0 L 760.0 132.0 L 742.0 136.0 L 753.0 126.0 L 746.0 124.0 L 753.0 111.0 L 746.0 109.0 L 746.0 87.0 L 739.0 81.0 L 737.0 68.0 L 730.0 62.0 Z" fill="#0e0c0a" fill-rule="evenodd"/>
  </g>
</svg>
